<svg width="327" height="68" viewBox="0 0 327 68" fill="none" xmlns="http://www.w3.org/2000/svg">
<g clip-path="url(#clip0_9634_243)">
<rect x="0.800049" y="0.600098" width="66.7009" height="66.7009" rx="14.4" fill="#0B68F7"/>
<path d="M33.6194 15.8367V15.8376L33.6204 15.8367L33.6213 15.8376C33.6226 15.8377 33.6239 15.8366 33.6252 15.8367L33.6243 15.8376C34.1241 15.8454 34.6079 16.0133 35.0042 16.3181C35.4011 16.6235 35.6892 17.0487 35.8245 17.531L42.7336 42.0974L46.1301 33.0398C46.296 32.5974 46.5934 32.2163 46.9817 31.947C47.3701 31.6777 47.8314 31.5331 48.304 31.533H102.038C102.654 31.5331 103.245 31.7782 103.68 32.2136C104.115 32.6491 104.36 33.2395 104.36 33.8552C104.36 34.471 104.115 35.0614 103.68 35.4968C103.245 35.9322 102.654 36.1774 102.038 36.1775H49.9133L44.5911 50.3669C44.4193 50.8252 44.1075 51.2177 43.6995 51.488C43.2915 51.7583 42.8085 51.8923 42.3196 51.8718C41.8305 51.8512 41.3597 51.6775 40.9758 51.3738C40.592 51.0701 40.3145 50.6525 40.1819 50.1814L33.4719 26.3181L30.8987 34.5476C30.7512 35.0197 30.4563 35.4322 30.0579 35.7253C29.6594 36.0185 29.1776 36.1772 28.6829 36.1775H-21.238C-21.8538 36.1774 -22.4442 35.9323 -22.8796 35.4968C-23.3151 35.0614 -23.5603 34.471 -23.5603 33.8552C-23.5603 33.2394 -23.3151 32.6491 -22.8796 32.2136C-22.4442 31.7782 -21.8538 31.533 -21.238 31.533H26.9768L31.3704 17.4666C31.5197 16.9878 31.8204 16.57 32.2268 16.2761C32.6303 15.9844 33.1169 15.8319 33.6145 15.8376L33.6155 15.8367H33.6194Z" fill="white" stroke="white" stroke-width="0.72"/>
</g>
<path d="M94.6062 52.9784C92.3534 52.9784 90.3646 52.4328 88.6398 51.3416C86.9502 50.2504 85.6302 48.7016 84.6798 46.6952C83.7294 44.6536 83.2542 42.26 83.2542 39.5144C83.2542 36.7336 83.7294 34.3576 84.6798 32.3864C85.6302 30.38 86.9502 28.8312 88.6398 27.74C90.3646 26.6488 92.3534 26.1032 94.6062 26.1032C96.7534 26.1032 98.619 26.6312 100.203 27.6872C101.822 28.7432 102.913 30.1336 103.477 31.8584H102.896V18.1304C102.896 17.0392 103.177 16.212 103.741 15.6488C104.304 15.0856 105.113 14.804 106.169 14.804C107.225 14.804 108.035 15.0856 108.598 15.6488C109.197 16.212 109.496 17.0392 109.496 18.1304V49.4936C109.496 50.5848 109.214 51.4296 108.651 52.028C108.088 52.5912 107.278 52.8728 106.222 52.8728C105.166 52.8728 104.357 52.5912 103.793 52.028C103.23 51.4296 102.949 50.5848 102.949 49.4936V45.3752L103.529 46.9592C103.001 48.7896 101.928 50.2504 100.309 51.3416C98.6894 52.4328 96.7886 52.9784 94.6062 52.9784ZM96.4542 47.9624C97.7566 47.9624 98.9006 47.6456 99.8862 47.012C100.872 46.3784 101.629 45.4456 102.157 44.2136C102.72 42.9464 103.001 41.38 103.001 39.5144C103.001 36.6984 102.403 34.604 101.206 33.2312C100.009 31.8232 98.4254 31.1192 96.4542 31.1192C95.1518 31.1192 94.0078 31.436 93.0222 32.0696C92.0366 32.668 91.2622 33.6008 90.699 34.868C90.171 36.1 89.907 37.6488 89.907 39.5144C89.907 42.2952 90.5054 44.4072 91.7022 45.8504C92.899 47.2584 94.483 47.9624 96.4542 47.9624ZM119.718 52.8728C118.627 52.8728 117.782 52.5912 117.184 52.028C116.621 51.4296 116.339 50.5848 116.339 49.4936V29.5352C116.339 28.444 116.621 27.6168 117.184 27.0536C117.747 26.4904 118.539 26.2088 119.56 26.2088C120.581 26.2088 121.373 26.4904 121.936 27.0536C122.499 27.6168 122.781 28.444 122.781 29.5352V32.8616H122.253C122.746 30.7496 123.714 29.148 125.157 28.0568C126.6 26.9656 128.518 26.3144 130.912 26.1032C131.651 26.0328 132.232 26.2264 132.654 26.684C133.112 27.1064 133.376 27.7752 133.446 28.6904C133.517 29.5704 133.306 30.292 132.813 30.8552C132.355 31.3832 131.651 31.7 130.701 31.8056L129.539 31.9112C127.392 32.1224 125.773 32.7912 124.682 33.9176C123.59 35.0088 123.045 36.5576 123.045 38.564V49.4936C123.045 50.5848 122.763 51.4296 122.2 52.028C121.637 52.5912 120.81 52.8728 119.718 52.8728ZM138.998 52.7144C137.801 52.7144 136.833 52.3448 136.094 51.6056C135.39 50.8664 135.038 49.916 135.038 48.7544C135.038 47.628 135.39 46.7128 136.094 46.0088C136.833 45.2696 137.801 44.9 138.998 44.9C140.23 44.9 141.18 45.2696 141.849 46.0088C142.553 46.7128 142.905 47.628 142.905 48.7544C142.905 49.916 142.553 50.8664 141.849 51.6056C141.18 52.3448 140.23 52.7144 138.998 52.7144ZM157.273 52.9784C155.407 52.9784 153.735 52.6264 152.257 51.9224C150.814 51.1832 149.67 50.1976 148.825 48.9656C148.015 47.7336 147.61 46.3432 147.61 44.7944C147.61 42.8936 148.103 41.3976 149.089 40.3064C150.074 39.18 151.676 38.3704 153.894 37.8776C156.111 37.3848 159.086 37.1384 162.817 37.1384H165.457V40.94H162.87C160.687 40.94 158.945 41.0456 157.642 41.2568C156.34 41.468 155.407 41.8376 154.844 42.3656C154.316 42.8584 154.052 43.5624 154.052 44.4776C154.052 45.6392 154.457 46.5896 155.266 47.3288C156.076 48.068 157.202 48.4376 158.646 48.4376C159.807 48.4376 160.828 48.1736 161.708 47.6456C162.623 47.0824 163.345 46.3256 163.873 45.3752C164.401 44.4248 164.665 43.3336 164.665 42.1016V36.0296C164.665 34.2696 164.278 33.0024 163.503 32.228C162.729 31.4536 161.426 31.0664 159.596 31.0664C158.575 31.0664 157.466 31.1896 156.27 31.436C155.108 31.6824 153.876 32.1048 152.574 32.7032C151.905 33.02 151.306 33.108 150.778 32.9672C150.286 32.8264 149.898 32.5448 149.617 32.1224C149.335 31.6648 149.194 31.172 149.194 30.644C149.194 30.116 149.335 29.6056 149.617 29.1128C149.898 28.5848 150.374 28.1976 151.042 27.9512C152.662 27.2824 154.21 26.8072 155.689 26.5256C157.202 26.244 158.575 26.1032 159.807 26.1032C162.342 26.1032 164.418 26.4904 166.038 27.2648C167.692 28.0392 168.924 29.2184 169.734 30.8024C170.543 32.3512 170.948 34.3576 170.948 36.8216V49.4936C170.948 50.5848 170.684 51.4296 170.156 52.028C169.628 52.5912 168.871 52.8728 167.886 52.8728C166.9 52.8728 166.126 52.5912 165.562 52.028C165.034 51.4296 164.77 50.5848 164.77 49.4936V46.9592H165.193C164.946 48.1912 164.454 49.2648 163.714 50.18C163.01 51.06 162.113 51.7464 161.022 52.2392C159.93 52.732 158.681 52.9784 157.273 52.9784ZM189.685 62.4824C187.785 62.4824 185.937 62.3064 184.141 61.9544C182.381 61.6024 180.78 61.0568 179.337 60.3176C178.668 59.9656 178.21 59.5432 177.964 59.0504C177.753 58.5576 177.682 58.0472 177.753 57.5192C177.858 57.0264 178.069 56.5864 178.386 56.1992C178.738 55.812 179.161 55.548 179.653 55.4072C180.146 55.2664 180.657 55.3368 181.185 55.6184C182.733 56.3928 184.194 56.8856 185.567 57.0968C186.975 57.3432 188.172 57.4664 189.157 57.4664C191.516 57.4664 193.276 56.8856 194.437 55.724C195.634 54.5976 196.233 52.908 196.233 50.6552V45.9032H196.708C196.18 47.6984 195.071 49.1416 193.381 50.2328C191.727 51.2888 189.844 51.8168 187.732 51.8168C185.409 51.8168 183.385 51.2888 181.66 50.2328C179.935 49.1416 178.597 47.628 177.647 45.692C176.697 43.756 176.221 41.5032 176.221 38.9336C176.221 36.9976 176.485 35.2552 177.013 33.7064C177.577 32.1224 178.351 30.7672 179.337 29.6408C180.357 28.5144 181.572 27.652 182.98 27.0536C184.423 26.42 186.007 26.1032 187.732 26.1032C189.914 26.1032 191.815 26.6488 193.434 27.74C195.089 28.796 196.162 30.204 196.655 31.964L196.127 33.284V29.5352C196.127 28.444 196.409 27.6168 196.972 27.0536C197.57 26.4904 198.38 26.2088 199.401 26.2088C200.457 26.2088 201.266 26.4904 201.829 27.0536C202.393 27.6168 202.674 28.444 202.674 29.5352V49.8632C202.674 54.052 201.565 57.2024 199.348 59.3144C197.13 61.4264 193.909 62.4824 189.685 62.4824ZM189.527 46.8008C190.9 46.8008 192.079 46.484 193.065 45.8504C194.05 45.2168 194.807 44.3192 195.335 43.1576C195.898 41.9608 196.18 40.5528 196.18 38.9336C196.18 36.5048 195.581 34.604 194.385 33.2312C193.188 31.8232 191.569 31.1192 189.527 31.1192C188.154 31.1192 186.975 31.436 185.989 32.0696C185.004 32.7032 184.229 33.6008 183.666 34.7624C183.138 35.924 182.874 37.3144 182.874 38.9336C182.874 41.3624 183.473 43.2808 184.669 44.6888C185.866 46.0968 187.485 46.8008 189.527 46.8008ZM222.237 52.9784C219.316 52.9784 216.799 52.4328 214.687 51.3416C212.575 50.2504 210.938 48.7016 209.777 46.6952C208.65 44.6888 208.087 42.3128 208.087 39.5672C208.087 36.892 208.633 34.5512 209.724 32.5448C210.85 30.5384 212.381 28.972 214.317 27.8456C216.289 26.684 218.524 26.1032 221.023 26.1032C222.853 26.1032 224.49 26.4024 225.933 27.0008C227.412 27.5992 228.661 28.4616 229.682 29.588C230.738 30.7144 231.53 32.0872 232.058 33.7064C232.621 35.2904 232.903 37.0856 232.903 39.092C232.903 39.7256 232.674 40.2184 232.217 40.5704C231.794 40.8872 231.178 41.0456 230.369 41.0456H213.42V37.244H228.257L227.412 38.036C227.412 36.4168 227.165 35.0616 226.673 33.9704C226.215 32.8792 225.529 32.052 224.613 31.4888C223.733 30.8904 222.625 30.5912 221.287 30.5912C219.809 30.5912 218.541 30.9432 217.485 31.6472C216.465 32.316 215.673 33.284 215.109 34.5512C214.581 35.7832 214.317 37.2616 214.317 38.9864V39.356C214.317 42.2424 214.986 44.4072 216.324 45.8504C217.697 47.2584 219.703 47.9624 222.343 47.9624C223.258 47.9624 224.279 47.8568 225.405 47.6456C226.567 47.3992 227.658 46.9944 228.679 46.4312C229.418 46.0088 230.069 45.8328 230.633 45.9032C231.196 45.9384 231.636 46.132 231.953 46.484C232.305 46.836 232.516 47.276 232.586 47.804C232.657 48.2968 232.551 48.8072 232.269 49.3352C232.023 49.8632 231.583 50.3208 230.949 50.708C229.717 51.4824 228.292 52.0632 226.673 52.4504C225.089 52.8024 223.61 52.9784 222.237 52.9784ZM241.403 52.8728C240.347 52.8728 239.538 52.5912 238.975 52.028C238.411 51.4296 238.13 50.5848 238.13 49.4936V29.5352C238.13 28.444 238.411 27.6168 238.975 27.0536C239.538 26.4904 240.33 26.2088 241.351 26.2088C242.371 26.2088 243.163 26.4904 243.727 27.0536C244.29 27.6168 244.571 28.444 244.571 29.5352V33.1256L243.991 31.8056C244.765 29.94 245.962 28.532 247.581 27.5816C249.235 26.596 251.101 26.1032 253.178 26.1032C255.255 26.1032 256.962 26.4904 258.299 27.2648C259.637 28.0392 260.64 29.2184 261.309 30.8024C261.978 32.3512 262.312 34.3224 262.312 36.716V49.4936C262.312 50.5848 262.031 51.4296 261.467 52.028C260.904 52.5912 260.095 52.8728 259.039 52.8728C257.983 52.8728 257.155 52.5912 256.557 52.028C255.994 51.4296 255.712 50.5848 255.712 49.4936V37.0328C255.712 35.0264 255.325 33.5656 254.551 32.6504C253.811 31.7352 252.65 31.2776 251.066 31.2776C249.13 31.2776 247.581 31.8936 246.419 33.1256C245.293 34.3224 244.73 35.924 244.73 37.9304V49.4936C244.73 51.7464 243.621 52.8728 241.403 52.8728ZM278.942 52.9784C276.689 52.9784 274.701 52.4328 272.976 51.3416C271.286 50.2504 269.966 48.7016 269.016 46.6952C268.065 44.6536 267.59 42.26 267.59 39.5144C267.59 36.7336 268.065 34.3576 269.016 32.3864C269.966 30.38 271.286 28.8312 272.976 27.74C274.701 26.6488 276.689 26.1032 278.942 26.1032C281.089 26.1032 282.955 26.6312 284.539 27.6872C286.158 28.7432 287.249 30.1336 287.813 31.8584H287.232V18.1304C287.232 17.0392 287.513 16.212 288.077 15.6488C288.64 15.0856 289.449 14.804 290.505 14.804C291.561 14.804 292.371 15.0856 292.934 15.6488C293.533 16.212 293.832 17.0392 293.832 18.1304V49.4936C293.832 50.5848 293.55 51.4296 292.987 52.028C292.424 52.5912 291.614 52.8728 290.558 52.8728C289.502 52.8728 288.693 52.5912 288.129 52.028C287.566 51.4296 287.285 50.5848 287.285 49.4936V45.3752L287.865 46.9592C287.337 48.7896 286.264 50.2504 284.645 51.3416C283.025 52.4328 281.125 52.9784 278.942 52.9784ZM280.79 47.9624C282.093 47.9624 283.237 47.6456 284.222 47.012C285.208 46.3784 285.965 45.4456 286.493 44.2136C287.056 42.9464 287.337 41.38 287.337 39.5144C287.337 36.6984 286.739 34.604 285.542 33.2312C284.345 31.8232 282.761 31.1192 280.79 31.1192C279.488 31.1192 278.344 31.436 277.358 32.0696C276.373 32.668 275.598 33.6008 275.035 34.868C274.507 36.1 274.243 37.6488 274.243 39.5144C274.243 42.2952 274.841 44.4072 276.038 45.8504C277.235 47.2584 278.819 47.9624 280.79 47.9624ZM309.176 52.9784C307.31 52.9784 305.638 52.6264 304.16 51.9224C302.717 51.1832 301.573 50.1976 300.728 48.9656C299.918 47.7336 299.514 46.3432 299.514 44.7944C299.514 42.8936 300.006 41.3976 300.992 40.3064C301.978 39.18 303.579 38.3704 305.797 37.8776C308.014 37.3848 310.989 37.1384 314.72 37.1384H317.36V40.94H314.773C312.59 40.94 310.848 41.0456 309.546 41.2568C308.243 41.468 307.31 41.8376 306.747 42.3656C306.219 42.8584 305.955 43.5624 305.955 44.4776C305.955 45.6392 306.36 46.5896 307.17 47.3288C307.979 48.068 309.106 48.4376 310.549 48.4376C311.71 48.4376 312.731 48.1736 313.611 47.6456C314.526 47.0824 315.248 46.3256 315.776 45.3752C316.304 44.4248 316.568 43.3336 316.568 42.1016V36.0296C316.568 34.2696 316.181 33.0024 315.406 32.228C314.632 31.4536 313.33 31.0664 311.499 31.0664C310.478 31.0664 309.37 31.1896 308.173 31.436C307.011 31.6824 305.779 32.1048 304.477 32.7032C303.808 33.02 303.21 33.108 302.682 32.9672C302.189 32.8264 301.802 32.5448 301.52 32.1224C301.238 31.6648 301.098 31.172 301.098 30.644C301.098 30.116 301.238 29.6056 301.52 29.1128C301.802 28.5848 302.277 28.1976 302.946 27.9512C304.565 27.2824 306.114 26.8072 307.592 26.5256C309.106 26.244 310.478 26.1032 311.71 26.1032C314.245 26.1032 316.322 26.4904 317.941 27.2648C319.595 28.0392 320.827 29.2184 321.637 30.8024C322.446 32.3512 322.851 34.3576 322.851 36.8216V49.4936C322.851 50.5848 322.587 51.4296 322.059 52.028C321.531 52.5912 320.774 52.8728 319.789 52.8728C318.803 52.8728 318.029 52.5912 317.466 52.028C316.938 51.4296 316.674 50.5848 316.674 49.4936V46.9592H317.096C316.85 48.1912 316.357 49.2648 315.618 50.18C314.914 51.06 314.016 51.7464 312.925 52.2392C311.834 52.732 310.584 52.9784 309.176 52.9784Z" fill="#0E0A2F"/>
<defs>
<clipPath id="clip0_9634_243">
<rect x="0.800049" y="0.600098" width="66.7009" height="66.7009" rx="14.4" fill="white"/>
</clipPath>
</defs>
</svg>
