<svg width="68" height="68" viewBox="0 0 68 68" fill="none" xmlns="http://www.w3.org/2000/svg">
<g clip-path="url(#clip0_9708_128)">
<rect x="0.800049" y="0.600098" width="66.7009" height="66.7009" rx="14.4" fill="#0B68F7"/>
<path d="M33.6194 15.8367V15.8376L33.6204 15.8367L33.6213 15.8376C33.6226 15.8377 33.6239 15.8366 33.6252 15.8367L33.6243 15.8376C34.1241 15.8454 34.6079 16.0133 35.0042 16.3181C35.4011 16.6235 35.6892 17.0487 35.8245 17.531L42.7336 42.0974L46.1301 33.0398C46.296 32.5974 46.5934 32.2163 46.9817 31.947C47.3701 31.6777 47.8314 31.5331 48.304 31.533H102.038C102.654 31.5331 103.245 31.7782 103.68 32.2136C104.115 32.6491 104.36 33.2395 104.36 33.8552C104.36 34.471 104.115 35.0614 103.68 35.4968C103.245 35.9322 102.654 36.1774 102.038 36.1775H49.9133L44.5911 50.3669C44.4193 50.8252 44.1075 51.2177 43.6995 51.488C43.2915 51.7583 42.8085 51.8923 42.3196 51.8718C41.8305 51.8512 41.3597 51.6775 40.9758 51.3738C40.592 51.0701 40.3145 50.6525 40.1819 50.1814L33.4719 26.3181L30.8987 34.5476C30.7512 35.0197 30.4563 35.4322 30.0579 35.7253C29.6594 36.0185 29.1776 36.1772 28.6829 36.1775H-21.238C-21.8538 36.1774 -22.4442 35.9323 -22.8796 35.4968C-23.3151 35.0614 -23.5603 34.471 -23.5603 33.8552C-23.5603 33.2394 -23.3151 32.6491 -22.8796 32.2136C-22.4442 31.7782 -21.8538 31.533 -21.238 31.533H26.9768L31.3704 17.4666C31.5197 16.9878 31.8204 16.57 32.2268 16.2761C32.6303 15.9844 33.1169 15.8319 33.6145 15.8376L33.6155 15.8367H33.6194Z" fill="white" stroke="white" stroke-width="0.72"/>
</g>
<defs>
<clipPath id="clip0_9708_128">
<rect x="0.800049" y="0.600098" width="66.7009" height="66.7009" rx="14.4" fill="white"/>
</clipPath>
</defs>
</svg>
